name Run_300 01_newCOP3_v24.mot
datacolumns 19
datarows 142
range 1.35625 1.503125
DataType=double
version=3
OpenSimVersion=4.3-2021-08-27-4bc7ad9
endheader
time	R_ground_force_vx	R_ground_force_vy	R_ground_force_vz	R_ground_force_px	R_ground_force_py	R_ground_force_pz	L_ground_force_vx	L_ground_force_vy	L_ground_force_vz	L_ground_force_px	L_ground_force_py	L_ground_force_pz	R_ground_torque_x	R_ground_torque_y	R_ground_torque_z	L_ground_torque_x	L_ground_torque_y	L_ground_torque_z
1.35625	0	0	0	0	0	0	149.666702	931.840454	24.723108	0.5837599999999999	0	-0.431803	0	0	0	0	-0.189386	0
1.357292	0	0	0	0	0	0	150.740601	915.433533	23.456266	0.581366	0	-0.431719	0	0	0	0	-0.072577	0
1.358333	0	0	0	0	0	0	151.690857	898.941833	22.19252	0.578976	0	-0.431631	0	0	0	-0	0.041507	-0
1.359375	0	0	0	0	0	0	152.522491	882.372375	20.931726	0.57659	0	-0.43154	0	0	0	-0	0.152686	-0
1.360417	0	0	0	0	0	0	153.240997	865.732788	19.67388	0.574207	0	-0.431446	0	0	0	-0	0.260789	-0
1.361458	0	0	0	0	0	0	153.852097	849.031555	18.419142	0.571825	0	-0.431349	0	0	0	-0	0.36565	-0
1.3625	0	0	0	0	0	0	154.361328	832.277405	17.167868	0.569443	0	-0.431249	0	0	0	-0	0.467113	-0
1.363542	0	0	0	0	0	0	154.773758	815.4794920000001	15.920619	0.567061	0	-0.431146	0	0	0	-0	0.565024	-0
1.364583	0	0	0	0	0	0	155.093582	798.647034	14.678187	0.564677	0	-0.43104	0	0	0	-0	0.659239	-0
1.365625	0	0	0	0	0	0	155.323898	781.789307	13.441588	0.562293	0	-0.43093	0	0	0	-0	0.749622	-0
1.366667	0	0	0	0	0	0	155.466461	764.915466	12.212057	0.559908	0	-0.430814	0	0	0	-0	0.836041	-0
1.367708	0	0	0	0	0	0	155.521545	748.034485	10.991039	0.557523	0	-0.430693	0	0	0	-0	0.918373	-0
1.36875	0	0	0	0	0	0	155.488037	731.15509	9.78017	0.55514	0	-0.430566	0	0	0	-0	0.9965039999999999	-0
1.369792	0	0	0	0	0	0	155.363419	714.285828	8.581253	0.55276	0	-0.430431	0	0	0	-0	1.070324	-0
1.370833	0	0	0	0	0	0	155.144089	697.43512	7.396225	0.550384	0	-0.430289	0	0	0	-0	1.139734	-0
1.371875	0	0	0	0	0	0	154.825546	680.611145	6.227128	0.548015	0	-0.430137	0	0	0	-0	1.20464	-0
1.372917	0	0	0	0	0	0	154.402817	663.8222050000001	5.076072	0.545654	0	-0.429976	0	0	0	-0	1.26496	-0
1.373958	0	0	0	0	0	0	153.870804	647.076538	3.945199	0.543304	0	-0.429806	0	0	0	-0	1.320616	-0
1.375	0	0	0	0	0	0	153.224655	630.382751	2.836646	0.540967	0	-0.429625	0	0	0	-0	1.371542	-0
1.376042	0	0	0	0	0	0	152.460129	613.749756	1.752511	0.538644	0	-0.429434	0	0	0	-0	1.417678	-0
1.377083	0	0	0	0	0	0	151.573837	597.186768	0.694818	0.536338	0	-0.429233	0	0	0	-0	1.458973	-0
1.378125	0	0	0	0	0	0	150.563522	580.703674	-0.33451	0.534049	0	-0.429022	0	0	0	-0	1.495387	-0
1.379167	0	0	0	0	0	0	149.428177	564.310608	-1.333676	0.531779	0	-0.4288	0	0	0	-0	1.526886	-0
1.380208	0	0	0	0	0	0	148.16803	548.018433	-2.30103	0.529528	0	-0.42857	0	0	0	-0	1.553449	-0
1.38125	0	0	0	0	0	0	146.784622	531.838257	-3.235085	0.527298	0	-0.42833	0	0	0	-0	1.57506	-0
1.382292	0	0	0	0	0	0	145.28064	515.781616	-4.134521	0.525089	0	-0.428081	0	0	0	-0	1.591715	-0
1.383333	0	0	0	0	0	0	143.659805	499.860046	-4.998197	0.5229009999999999	0	-0.427825	0	0	0	-0	1.60342	-0
1.384375	0	0	0	0	0	0	141.926697	484.085358	-5.825139	0.520733	0	-0.427563	0	0	0	-0	1.610187	-0
1.385417	0	0	0	0	0	0	140.086639	468.469177	-6.614543	0.518585	0	-0.427295	0	0	0	-0	1.612041	-0
1.386458	0	0	0	0	0	0	138.145523	453.022888	-7.365757	0.516456	0	-0.427022	0	0	0	-0	1.609016	-0
1.3875	0	0	0	0	0	0	136.109665	437.75766	-8.07827	0.5143450000000001	0	-0.426746	0	0	0	-0	1.601153	-0
1.388542	0	0	0	0	0	0	133.985733	422.684204	-8.751693	0.512251	0	-0.426469	0	0	0	-0	1.588504	-0
1.389583	0	0	0	0	0	0	131.780701	407.812927	-9.385742	0.51017	0	-0.426192	0	0	0	-0	1.57113	-0
1.390625	0	0	0	0	0	0	129.50174	393.153839	-9.980217	0.5081020000000001	0	-0.425916	0	0	0	-0	1.549102	-0
1.391667	0	0	0	0	0	0	127.156334	378.716522	-10.534983	0.506042	0	-0.425642	0	0	0	-0	1.522498	-0
1.392708	0	0	0	0	0	0	124.752113	364.510315	-11.049949	0.503989	0	-0.425373	0	0	0	-0	1.491407	-0
1.39375	0	0	0	0	0	0	122.296921	350.544342	-11.525058	0.5019400000000001	0	-0.425108	0	0	0	-0	1.455925	-0
1.394792	0	0	0	0	0	0	119.798721	336.827454	-11.960272	0.499892	0	-0.424847	0	0	0	-0	1.416156	-0
1.395833	0	0	0	0	0	0	117.265549	323.368378	-12.355559	0.497842	0	-0.424591	0	0	0	-0	1.372214	-0
1.396875	0	0	0	0	0	0	114.705368	310.175751	-12.710894	0.495789	0	-0.424338	0	0	0	-0	1.324218	-0
1.397917	0	0	0	0	0	0	112.125946	297.257996	-13.02625	0.493731	0	-0.424085	0	0	0	-0	1.272298	-0
1.398958	0	0	0	0	0	0	109.534668	284.623322	-13.301613	0.491666	0	-0.423831	0	0	0	-0	1.216588	-0
1.4	0	0	0	0	0	0	106.938362	272.279724	-13.536978	0.489596	0	-0.423569	0	0	0	-0	1.157231	-0
1.401042	0	0	0	0	0	0	104.343094	260.234741	-13.732368	0.487521	0	-0.423296	0	0	0	-0	1.094376	-0
1.402083	0	0	0	0	0	0	101.753998	248.495377	-13.887849	0.485444	0	-0.423005	0	0	0	-0	1.028177	-0
1.403125	0	0	0	0	0	0	99.17514	237.068008	-14.003545	0.483368	0	-0.422689	0	0	0	-0	0.958795	-0
1.404167	0	0	0	0	0	0	96.60940600000001	225.958145	-14.079659	0.481299	0	-0.422339	0	0	0	-0	0.886397	-0
1.405208	0	0	0	0	0	0	94.058418	215.170364	-14.116498	0.479242	0	-0.421947	0	0	0	-0	0.811153	-0
1.40625	0	0	0	0	0	0	91.52259100000001	204.708191	-14.114491	0.477206	0	-0.421504	0	0	0	-0	0.73324	-0
1.407292	0	0	0	0	0	0	89.00116	194.573975	-14.074209	0.4752	0	-0.420998	0	0	0	-0	0.652836	-0
1.408333	0	0	0	0	0	0	86.49234	184.768906	-13.99639	0.473233	0	-0.420421	0	0	0	-0	0.570125	-0
1.409375	0	0	0	0	0	0	83.993469	175.292999	-13.881951	0.471317	0	-0.419761	0	0	0	-0	0.485293	-0
1.410417	0	0	0	0	0	0	81.501274	166.145142	-13.732	0.469463	0	-0.41901	0	0	0	-0	0.398529	-0
1.411458	0	0	0	0	0	0	79.01211499999999	157.323212	-13.54785	0.467682	0	-0.418157	0	0	0	-0	0.310024	-0
1.4125	0	0	0	0	0	0	76.522255	148.824127	-13.331017	0.465986	0	-0.417194	0	0	0	-0	0.21997	-0
1.413542	0	0	0	0	0	0	74.028175	140.644089	-13.083225	0.464389	0	-0.416111	0	0	0	-0	0.12856	-0
1.414583	0	0	0	0	0	0	71.526794	132.778656	-12.806397	0.4629	0	-0.414901	0	0	0	-0	0.035989	-0
1.415625	0	0	0	0	0	0	69.015755	125.222992	-12.502641	0.461532	0	-0.413556	0	0	0	0	-0.05755	0
1.416667	0	0	0	0	0	0	66.49361399999999	117.971901	-12.174233	0.460297	0	-0.412069	0	0	0	0	-0.151864	0
1.417708	0	0	0	0	0	0	63.959995	111.020027	-11.8236	0.459205	0	-0.410433	0	0	0	0	-0.246763	0
1.41875	0	0	0	0	0	0	61.415718	104.361946	-11.453283	0.458267	0	-0.408644	0	0	0	0	-0.342055	0
1.419792	0	0	0	0	0	0	58.862835	97.992203	-11.065917	0.457494	0	-0.406696	0	0	0	0	-0.437555	0
1.420833	0	0	0	0	0	0	56.304634	91.905357	-10.66419	0.456896	0	-0.404584	0	0	0	0	-0.533077	0
1.421875	0	0	0	0	0	0	53.745579	86.096024	-10.250811	0.456482	0	-0.402304	0	0	0	0	-0.62844	0
1.422917	0	0	0	0	0	0	51.191231	80.558792	-9.828472	0.45626	0	-0.399853	0	0	0	0	-0.723468	0
1.423958	0	0	0	0	0	0	48.648083	75.28826100000001	-9.399813999999999	0.456238	0	-0.397228	0	0	0	0	-0.817988	0
1.425	0	0	0	0	0	0	46.123405	70.278954	-8.967389000000001	0.456422	0	-0.394427	0	0	0	0	-0.911833	0
1.426042	0	0	0	0	0	0	43.62505	65.525291	-8.533632000000001	0.456813	0	-0.391451	0	0	0	0	-1.004838	0
1.427083	0	0	0	0	0	0	41.161243	61.021549	-8.100828	0.457415	0	-0.388297	0	0	0	0	-1.096849	0
1.428125	0	0	0	0	0	0	38.74036	56.761829	-7.671087	0.458225	0	-0.384968	0	0	0	0	-1.187712	0
1.429167	0	0	0	0	0	0	36.37072	52.740028	-7.246324	0.45924	0	-0.381465	0	0	0	0	-1.277284	0
1.430208	0	0	0	0	0	0	34.060383	48.949833	-6.828245	0.460452	0	-0.377791	0	0	0	0	-1.365425	0
1.43125	0	0	0	0	0	0	31.81695	45.384739	-6.418334	0.461854	0	-0.373946	0	0	0	0	-1.452002	0
1.432292	0	0	0	0	0	0	29.647392	42.038036	-6.017851	0.463433	0	-0.369934	0	0	0	0	-1.536889	0
1.433333	0	0	0	0	0	0	27.55792	38.902863	-5.627831	0.465179	0	-0.365755	0	0	0	0	-1.619967	0
1.434375	0	0	0	0	0	0	25.553858	35.972214	-5.249086	0.467079	0	-0.361408	0	0	0	0	-1.701122	0
1.435417	0	0	0	0	0	0	23.63957	33.238976	-4.882227	0.469121	0	-0.356889	0	0	0	0	-1.780249	0
1.436458	0	0	0	0	0	0	21.818407	30.695953	-4.527667	0.471296	0	-0.35219	0	0	0	0	-1.857245	0
1.4375	0	0	0	0	0	0	20.092701	28.335903	-4.185643	0.473598	0	-0.347297	0	0	0	0	-1.932017	0
1.438542	0	0	0	0	0	0	18.463758	26.151543	-3.856241	0.476026	0	-0.342191	0	0	0	0	-2.004477	0
1.439583	0	0	0	0	0	0	16.931917	24.135563	-3.539412	0.478589	0	-0.336845	0	0	0	0	-2.074541	0
1.440625	0	0	0	0	0	0	15.496583	22.280642	-3.235003	0.4813	0	-0.331223	0	0	0	0	-2.142132	0
1.441667	0	0	0	0	0	0	14.156307	20.57943	-2.942777	0.484185	0	-0.325283	0	0	0	0	-2.207177	0
1.442708	0	0	0	0	0	0	12.908862	19.024542	-2.662439	0.48728	0	-0.318972	0	0	0	0	-2.269608	0
1.44375	0	0	0	0	0	0	11.751323	17.608545	-2.393658	0.490634	0	-0.312235	0	0	0	0	-2.329361	0
1.444792	0	0	0	0	0	0	10.68015	16.323931	-2.13609	0.494302	0	-0.305012	0	0	0	0	-2.386377	0
1.445833	0	0	0	0	0	0	9.691280000000001	15.16309	-1.889393	0.49835	0	-0.297243	0	0	0	0	-2.440598	0
1.446875	0	0	0	0	0	0	8.780208	14.118299	-1.653248	0.502847	0	-0.288874	0	0	0	0	-2.491972	0
1.447917	0	0	0	0	0	0	7.942076	13.1817	-1.427369	0.507862	0	-0.279865	0	0	0	0	-2.540448	0
1.448958	0	0	0	0	0	0	7.171775	12.345293	-1.211513	0.513456	0	-0.270191	0	0	0	0	-2.585977	0
1.45	0	0	0	0	0	0	6.464033	11.60095	-1.005484	0.519674	0	-0.259854	0	0	0	0	-2.628512	0
1.451042	0	0	0	0	0	0	5.813521	10.940435	-0.809142	0.526545	0	-0.24888	0	0	0	0	-2.668008	0
1.452083	0	0	0	0	0	0	5.214963	10.355453	-0.6223919999999999	0.534066	0	-0.237328	0	0	0	0	-2.704422	0
1.453125	0	0	0	0	0	0	0	0	0	0	0	0	0	0	0	0	0	0
1.454167	0	0	0	0	0	0	0	0	0	0	0	0	0	0	0	0	0	0
1.455208	0	0	0	0	0	0	0	0	0	0	0	0	0	0	0	0	0	0
1.45625	0	0	0	0	0	0	0	0	0	0	0	0	0	0	0	0	0	0
1.457292	0	0	0	0	0	0	0	0	0	0	0	0	0	0	0	0	0	0
1.458333	0	0	0	0	0	0	0	0	0	0	0	0	0	0	0	0	0	0
1.459375	0	0	0	0	0	0	0	0	0	0	0	0	0	0	0	0	0	0
1.460417	0	0	0	0	0	0	0	0	0	0	0	0	0	0	0	0	0	0
1.461458	0	0	0	0	0	0	0	0	0	0	0	0	0	0	0	0	0	0
1.4625	0	0	0	0	0	0	0	0	0	0	0	0	0	0	0	0	0	0
1.463542	0	0	0	0	0	0	0	0	0	0	0	0	0	0	0	0	0	0
1.464583	0	0	0	0	0	0	0	0	0	0	0	0	0	0	0	0	0	0
1.465625	0	0	0	0	0	0	0	0	0	0	0	0	0	0	0	0	0	0
1.466667	0	0	0	0	0	0	0	0	0	0	0	0	0	0	0	0	0	0
1.467708	0	0	0	0	0	0	0	0	0	0	0	0	0	0	0	0	0	0
1.46875	0	0	0	0	0	0	0	0	0	0	0	0	0	0	0	0	0	0
1.469792	0	0	0	0	0	0	0	0	0	0	0	0	0	0	0	0	0	0
1.470833	0	0	0	0	0	0	0	0	0	0	0	0	0	0	0	0	0	0
1.471875	0	0	0	0	0	0	0	0	0	0	0	0	0	0	0	0	0	0
1.472917	0	0	0	0	0	0	0	0	0	0	0	0	0	0	0	0	0	0
1.473958	0	0	0	0	0	0	0	0	0	0	0	0	0	0	0	0	0	0
1.475	0	0	0	0	0	0	0	0	0	0	0	0	0	0	0	0	0	0
1.476042	0	0	0	0	0	0	0	0	0	0	0	0	0	0	0	0	0	0
1.477083	0	0	0	0	0	0	0	0	0	0	0	0	0	0	0	0	0	0
1.478125	0	0	0	0	0	0	0	0	0	0	0	0	0	0	0	0	0	0
1.479167	0	0	0	0	0	0	0	0	0	0	0	0	0	0	0	0	0	0
1.480208	0	0	0	0	0	0	0	0	0	0	0	0	0	0	0	0	0	0
1.48125	0	0	0	0	0	0	0	0	0	0	0	0	0	0	0	0	0	0
1.482292	0	0	0	0	0	0	0	0	0	0	0	0	0	0	0	0	0	0
1.483333	0	0	0	0	0	0	0	0	0	0	0	0	0	0	0	0	0	0
1.484375	0	0	0	0	0	0	0	0	0	0	0	0	0	0	0	0	0	0
1.485417	0	0	0	0	0	0	0	0	0	0	0	0	0	0	0	0	0	0
1.486458	0	0	0	0	0	0	0	0	0	0	0	0	0	0	0	0	0	0
1.4875	0	0	0	0	0	0	0	0	0	0	0	0	0	0	0	0	0	0
1.488542	0	0	0	0	0	0	0	0	0	0	0	0	0	0	0	0	0	0
1.489583	0	0	0	0	0	0	0	0	0	0	0	0	0	0	0	0	0	0
1.490625	0	0	0	0	0	0	0	0	0	0	0	0	0	0	0	0	0	0
1.491667	0	0	0	0	0	0	0	0	0	0	0	0	0	0	0	0	0	0
1.492708	0	0	0	0	0	0	0	0	0	0	0	0	0	0	0	0	0	0
1.49375	0	0	0	0	0	0	0	0	0	0	0	0	0	0	0	0	0	0
1.494792	0	0	0	0	0	0	0	0	0	0	0	0	0	0	0	0	0	0
1.495833	0	0	0	0	0	0	0	0	0	0	0	0	0	0	0	0	0	0
1.496875	0	0	0	0	0	0	0	0	0	0	0	0	0	0	0	0	0	0
1.497917	0	0	0	0	0	0	0	0	0	0	0	0	0	0	0	0	0	0
1.498958	0	0	0	0	0	0	0	0	0	0	0	0	0	0	0	0	0	0
1.5	0	0	0	0	0	0	0	0	0	0	0	0	0	0	0	0	0	0
1.501042	0	0	0	0	0	0	0	0	0	0	0	0	0	0	0	0	0	0
1.502083	0	0	0	0	0	0	0	0	0	0	0	0	0	0	0	0	0	0
1.503125	0	0	0	0	0	0	0	0	0	0	0	0	0	0	0	0	0	0
